<svg xmlns="http://www.w3.org/2000/svg" viewBox="0 0 2000 1865.68"><g data-name="Secondary shapes" fill="#000000" class="color000 svgShape"><path fill="#e9edf7" d="M89.28 1599.49c0-17.32 144.11-31.36 321.88-31.36s321.88 14 321.88 31.36-144.11 31.36-321.88 31.36-321.88-14.04-321.88-31.36Z" class="colore9edf7 svgShape"/><ellipse cx="1185.58" cy="1421.11" fill="#e9edf7" rx="441.52" ry="24.14" class="colore9edf7 svgShape"/><path fill="#e9edf7" d="M1918.62 711c-21.26 0-39.74-6.57-52.46-19-11.43-11.18-17.09-26.35-15.43-41a44.46 44.46 0 0 1-25.73-31c-3.73-16.47-.48-43.83 36.21-80.72a2.84 2.84 0 0 1 4 4c-34.88 35.06-38.12 60.39-34.7 75.46a38.64 38.64 0 0 0 24.31 27.78 2.85 2.85 0 0 1 1.85 3.15c-2.29 13.72 2.62 27.68 13.48 38.3 15.47 15.14 40.53 20.76 68.74 15.42a2.84 2.84 0 0 1 1.06 5.58 114.48 114.48 0 0 1-21.33 2.03Z" class="colore9edf7 svgShape"/><path fill="#e9edf7" d="M1920.08 693.65c-14.88 0-28.49-3.49-40-10.44-13.81-8.35-23.59-21.47-25.74-34.44-10.34-10.93-14.7-26.33-12-42.4 4.23-24.91 23.62-47.53 53.2-62.08a2.84 2.84 0 0 1 2.51 5.09c-27.93 13.74-46.19 34.85-50.11 57.93-2.51 14.81 1.43 28.35 11.08 38.15a2.89 2.89 0 0 1 .79 1.61c1.59 11.61 10.47 23.6 23.19 31.28 19.78 12 46.55 12.8 75.35 2.37a2.84 2.84 0 0 1 1.93 5.34c-13.96 5.07-27.54 7.59-40.2 7.59Z" class="colore9edf7 svgShape"/><path fill="#e9edf7" d="M1920.54 675.65c-17.9 0-34.11-3.81-45.13-9.87-9.83-5.42-15.54-12.35-16.53-20.08-6.47-12.48-5.9-25 1.7-37.23 16.66-26.8 62.27-43.57 77.28-43.57h.59a2.84 2.84 0 1 1-.18 5.67c-12-.37-56.87 15.16-72.87 40.89-6.55 10.54-7 21.32-1.25 32a3 3 0 0 1 .32 1.06c.58 5.93 5.44 11.7 13.68 16.24 20.58 11.32 60.57 14.21 94.16-2.75a2.84 2.84 0 1 1 2.56 5.07c-17.51 8.92-36.74 12.57-54.33 12.57Z" class="colore9edf7 svgShape"/><path fill="#e9edf7" d="M1935.3 661.72c-18.68 0-53.13-5.27-74.75-14.25a2.84 2.84 0 0 1-1.39-4c12.45-22.5 51-49.47 67.18-53a2.84 2.84 0 1 1 1.21 5.55c-13.87 3-48.76 27.36-61.75 47.42 25.45 9.62 66.87 14.57 78 12a2.83 2.83 0 1 1 1.29 5.52 45.75 45.75 0 0 1-9.79.76Z" class="colore9edf7 svgShape"/><path fill="#e9edf7" d="M1895.33 649.7c-12.3 0-23.41-1-33.95-2a2.84 2.84 0 0 1 .53-5.65c25.57 2.39 54.56 5.1 96.09-8a2.84 2.84 0 0 1 1.71 5.41c-25.41 7.97-46.2 10.24-64.38 10.24Z" class="colore9edf7 svgShape"/><path fill="#e9edf7" d="M1868.19 648.28a2.84 2.84 0 0 1-1.84-5c19.61-16.62 80-36.63 102.5-34a2.83 2.83 0 1 1-.66 5.63c-21-2.46-79.77 17.08-98.17 32.68a2.82 2.82 0 0 1-1.83.69ZM1665.44 745.83a2.84 2.84 0 0 1-1.63-5.16c43.79-30.7 166.45-89.34 189.44-94.3a2.84 2.84 0 1 1 1.2 5.55c-20.38 4.39-141.33 61.11-187.38 93.39a2.82 2.82 0 0 1-1.63.52ZM100.11 1331.33C85.05 1309 60.33 1315 46 1319.74c5.12 6.49 27.41 31.51 54.11 11.59Z" class="colore9edf7 svgShape"/><path fill="#dde2f8" d="M227.59 1350a534 534 0 0 1-132.27-16.61 2.84 2.84 0 1 1 1.42-5.5c95.86 24.66 186.72 18 239.79 3.47a2.84 2.84 0 0 1 1.5 5.48c-28.03 7.64-66.4 13.16-110.44 13.16Z" class="colordde2f8 svgShape"/><path fill="#e9edf7" d="M303.42 1353.58c-43 33.38-26.38 69.75-14.83 98 12.41-11.22 58.58-46.89 14.83-98ZM251.84 1361.26c-40.08 17.37-34.44 49-31.1 73.23 11.86-6.24 54.91-24.75 31.1-73.23ZM195.14 1358.32c-37 6.45-38.63 34-40.72 54.94 11.16-2.83 50.86-9.64 40.72-54.94ZM140.72 1351.05c-23.2-2.56-28.95 13.59-33.82 25.73 7.15.22 32.02 3.06 33.82-25.73ZM294.56 1326.6c-46.89-10.35-47.43-45.62-48.91-72.5 14.11 4.25 64.43 15.2 48.91 72.5ZM238.31 1333.9c-41.34-2.52-46.54-32.5-51.41-55.21 12.59 1.73 56.95 4.31 51.41 55.21ZM170.82 1332.5c-26.67-9.47-24.41-30.13-23.32-46 7.94 3.55 36.58 13.62 23.32 46ZM125.41 1328.36c-16.29-2.57-17.2-14.65-18.27-23.84 4.93 1.17 22.4 3.87 18.27 23.84Z" class="colore9edf7 svgShape"/><path fill="#6b67e9" d="M396.48 1122.9c-72.29 81.59-146.93 101.18-250.11 38.74 53.39-77.64 175.51-122.2 250.11-38.74Z" class="color6b67e9 svgShape"/><path fill="#9f9cff" d="M385.92 1093.48c-125.31 45.83-220.83-34.57-253.82-188.2 121.35-18.75 266.31 42.89 253.82 188.2Z" class="color9f9cff svgShape"/><path fill="#807dfb" d="M385.92 1096.32a2.85 2.85 0 0 1-1.82-.66c-19.47-16.23-54.5-40.72-91.58-66.64-45.1-31.53-96.21-67.25-132.24-97a2.84 2.84 0 0 1 3.62-4.37c35.85 29.64 86.86 65.3 131.87 96.76 37.19 26 72.31 50.55 92 66.94a2.84 2.84 0 0 1-1.82 5Z" class="color807dfb svgShape"/><path fill="#362e94" d="M1309.27 1407.71c-39.76-26.11-137.74-218.62-60.72-255.93 73-35.36 96.17 115.22 100.52 134.78 15.21-73.89 35.13-145.61 83.85-132.57s0 117.35 0 117.35c44.37-56.49 155-143.45 205.29-117.36S1536 1273.71 1536 1273.71c69.34-39.33 276.54-92.29 69.6 7.68 94.75-30.64 279.52-45.68 74.13 18.25 123.62-10.74 186.36 6.09 188.54 23.48s-34.1 42-193.85 46c78.9 13 118.49 31.5 98.15 38.57Z" class="color362e94 svgShape"/><path fill="#ffffff" d="M1574 1314.8a6.42 6.42 0 1 1 6.42 6.41 6.43 6.43 0 0 1-6.42-6.41ZM1353.69 1352.57a9.88 9.88 0 1 1 9.87 9.88 9.87 9.87 0 0 1-9.87-9.88ZM1482.27 1279.4a8.44 8.44 0 1 1 8.44 8.43 8.44 8.44 0 0 1-8.44-8.43Z" class="colorfff svgShape"/><path fill="#6b67e9" d="M681.84 519.54c-58.23 62.39-136 44.16-199.27-33.95 63.81-45.81 164.35-52.59 199.27 33.95Z" class="color6b67e9 svgShape"/><path fill="#9f9cff" d="M703.62 534.26c-110.17-15.15-149.14-111.64-113.5-237.66 96.69 33.54 179.41 135.51 113.5 237.66Z" class="color9f9cff svgShape"/><path fill="#807dfb" d="M703.62 537.1a2.85 2.85 0 0 1-2.63-1.76c-8-19.55-24.24-51.26-41.44-84.83-20.91-40.81-44.61-87.07-59.55-123.07a2.84 2.84 0 1 1 5.25-2.17c14.82 35.79 38.46 81.94 59.32 122.65 17.26 33.68 33.56 65.5 41.65 85.27a2.84 2.84 0 0 1-1.56 3.7 2.87 2.87 0 0 1-1.04.21ZM1680 531.23c70 51 146.3 22.31 197.61-61.39-72.97-34.4-176.74-26.22-197.61 61.39Z" class="color807dfb svgShape"/><path fill="#9f9cff" d="M1641.16 525c124.57-10.18 169.88-110.53 131.36-246.25C1662.91 309.13 1568.15 413 1641.16 525Z" class="color9f9cff svgShape"/><path fill="#807dfb" d="M1641.16 527.8a2.8 2.8 0 0 1-1.18-.26 2.84 2.84 0 0 1-1.4-3.76c9.4-20.56 28.23-53.46 48.17-88.3 24.11-42.11 51.42-89.84 68.64-127a2.84 2.84 0 0 1 5.16 2.38c-17.33 37.43-44.71 85.27-68.87 127.48-19.87 34.72-38.64 67.52-47.94 87.84a2.83 2.83 0 0 1-2.58 1.62Z" class="color807dfb svgShape"/><path fill="#9f9cff" d="M757.72 509.72a2.77 2.77 0 0 1-.89-.15A2.83 2.83 0 0 1 755 506c9.17-27.62 21.92-92.17 32.49-164.43 12-81.9 18.91-158.44 19-210a2.83 2.83 0 0 1 2.84-2.83 2.84 2.84 0 0 1 2.84 2.84c-.17 114.32-32.46 318.09-51.75 376.19a2.86 2.86 0 0 1-2.7 1.95Z" class="color9f9cff svgShape"/><path fill="none" stroke="#9f9cff" stroke-linecap="round" stroke-linejoin="round" stroke-width="5" d="M817.62 129.52a13.45 13.45 0 1 0-18.56-4.15 13.45 13.45 0 0 0 18.56 4.15ZM866.33 240.36a13 13 0 1 0-18-4 13 13 0 0 0 18 4ZM754.92 315a14.78 14.78 0 1 0-20.4-4.56 14.78 14.78 0 0 0 20.4 4.56ZM840.51 388.41a17.11 17.11 0 1 0-23.61-5.28 17.12 17.12 0 0 0 23.61 5.28ZM776.79 150.78a11.16 11.16 0 1 0-15.41-3.44 11.17 11.17 0 0 0 15.41 3.44Z" class="colorStroke9f9cff svgStroke"/><path fill="#9f9cff" d="M806.78 197.94a2.84 2.84 0 0 1-2.77-2.25c-2-9.05-16.6-28.6-24.47-39.1-1.54-2.05-2.84-3.79-3.78-5.09a2.84 2.84 0 1 1 4.6-3.33c.93 1.29 2.21 3 3.72 5 11.26 15 23.44 31.83 25.48 41.31a2.84 2.84 0 0 1-2.18 3.37 3.07 3.07 0 0 1-.6.09ZM798.38 284.25a2.75 2.75 0 0 1-1.63-.52 2.83 2.83 0 0 1-.68-4c14.27-20.16 42.13-40.35 50.76-45.83a2.84 2.84 0 0 1 3 4.79c-6.84 4.34-35.2 24.57-49.18 44.32a2.83 2.83 0 0 1-2.27 1.24ZM787.34 364.6a2.84 2.84 0 0 1-2.77-2.21c-2.6-11.64-24.73-40.51-31.27-45.07a2.84 2.84 0 1 1 3.24-4.66c7.4 5.16 30.62 35.27 33.57 48.48a2.83 2.83 0 0 1-2.15 3.39 2.56 2.56 0 0 1-.62.07ZM774.88 436.93a2.84 2.84 0 0 1-2.35-4.43c5.52-8.18 40.58-41.86 46.32-47.18a2.84 2.84 0 1 1 3.86 4.16c-7.56 7-40.56 38.9-45.48 46.19a2.81 2.81 0 0 1-2.35 1.26Z" class="color9f9cff svgShape"/><path fill="#6b67e9" d="M1058.57 1233.04h254.03v157.17h-254.03z" class="color6b67e9 svgShape"/><path style="mix-blend-mode:multiply" fill="#d1d7f3" d="M1058.57 1233.04h254.03v19.39h-254.03z" class="colord1d7f3 svgShape"/><path fill="#9f9cff" d="M947.56 1390.41h476.05v30.71H947.56zM1725.81 1131H645.36v69.63a32.45 32.45 0 0 0 32.45 32.37h1015.55a32.45 32.45 0 0 0 32.45-32.45Z" class="color9f9cff svgShape"/><path fill="#423eaf" d="M1693.36 476.75H677.8a32.45 32.45 0 0 0-32.45 32.45v21.6h1080.46v-21.6a32.45 32.45 0 0 0-32.45-32.45Z" class="color423eaf svgShape"/><path fill="#6b67e9" d="M1686.35 1200.59a7 7 0 1 1 7 7 7 7 0 0 1-7-7ZM1657.55 1200.59a7 7 0 1 1 7 7 7 7 0 0 1-7-7ZM645.36 530.8h1080.45v600.16H645.36z" class="color6b67e9 svgShape"/><path fill="#ffffff" d="M664.12 530.8h1042.93v600.16H664.12z" class="colorfff svgShape"/><circle cx="1185.58" cy="830.88" r="259.81" fill="#fb944b" transform="rotate(-45 1185.58 830.877)" class="colorfb944b svgShape"/><circle cx="1185.58" cy="830.88" r="234.81" fill="#ffffff" transform="rotate(-45 1185.58 830.877)" class="colorfff svgShape"/><path fill="#fb944b" d="m1324.43 741.75-49.72-49.72-89.12 89.13-89.13-89.13-49.72 49.72 89.13 89.13-89.13 89.13 49.72 49.72 89.13-89.13 89.12 89.13 49.72-49.72-89.13-89.13 89.13-89.13z" class="colorfb944b svgShape"/><path fill="#e19100" d="M414.64 794.59a367.66 367.66 0 0 1 59.49 1.41c19.68 24.31-26.04 39.71-59.49-1.41Z" class="colore19100 svgShape"/><path fill="#fcba06" d="m466.24 703.54-8.42 21.36c9.66 5.06 99.69 34.78 99.69 40.15s4.23 20.55 4.23 20.55 42.89-8.22 44.92-24.19c3.93-30.9-55.95-48.72-140.42-57.87Z" class="colorfcba06 svgShape"/><path fill="#362e94" d="M459 822.85c-13.74-8.44-2.8-40.93-.76-51.65 2.73-14.38.28-86.8.28-86.8 33.88 21.46 68 84.45 46.94 119A33.22 33.22 0 1 1 459 822.85ZM546.31 1592c-3.27 0-7.34 3.62-7.85 7.46h-6a32.57 32.57 0 0 1-2.77-22.58c1.95-8 4-6.09 6.08-4 4.74 3.85 24.08 5.11 25.6-1.38 5 .75 56.38 15.53 56.38 20.28 0 7.71-6 7.68-10.15 7.68-48.6.03-42.13-2.95-61.29-7.46Z" class="color362e94 svgShape"/><path fill="#f7d3c9" d="M556.15 1563.36c-1.66-7.32-22.85-12.82-21.75 0a17.43 17.43 0 0 1-1.11 8.17c4.26 6.09 49 17.53 56.3 8-5.09-2.69-33.44-8.4-33.44-16.17Z" class="colorf7d3c9 svgShape"/><path fill="#362e94" d="M321.86 1592c3.27 0 7.33 3.62 7.85 7.46h6a32.6 32.6 0 0 0 2.76-22.58c-1.94-8-4-6.09-6.08-4-4.74 3.85-24.08 5.11-25.59-1.38-5 .75-56.39 15.53-56.39 20.28 0 7.71 6 7.68 10.15 7.68 48.57.03 42.14-2.95 61.3-7.46Z" class="color362e94 svgShape"/><path fill="#f7d3c9" d="M312 1563.36c1.67-7.32 22.85-12.82 21.76 0a17.31 17.31 0 0 0 1.11 8.17c-4.26 6.09-49 17.53-56.3 8 5.09-2.69 33.43-8.4 33.43-16.17Z" class="colorf7d3c9 svgShape"/><path fill="#362e94" d="M509.23 1024.53c48.74 84.9 47.69 407.3 47.69 538.38h-23.26c-13.07-32.49-125.6-476.56-134.44-538.38Z" class="color362e94 svgShape"/><path fill="#423eaf" d="M367 1024.53c-56.27 88.76-55.88 406.79-55.88 537.87h23.26c13.06-32.49 128.53-476.05 137.37-537.87Z" class="color423eaf svgShape"/><path fill="#fcba06" d="M485.44 800.24c25.94-3.1 57.88-16.79 72.07-35.19 11-16.66 40.45-27.57 47.92 0-13.57 46.57-94.13 80.53-97.07 116.3-1.36 16.56-39.67-79.11-22.92-81.11Z" class="colorfcba06 svgShape"/><path fill="#e19100" d="M484.78 807c5.35-.37 33.22 33.37 41.24 44.26-7.24 7.4-12.87 14.71-15.71 22-17.01-13.9-30.31-65.89-25.53-66.26Z" class="colore19100 svgShape"/><path fill="#fcba06" d="M367 1024.53h142.23c-9.39-94.92 25.39-116.54 10.49-150.86-16.27-37.45-19.11-44.82-34.28-73.43-27.15-1.6-53.3 3.84-94.05-20.51-15.8 12.91-29.32 29.62-38.58 59.78-1.99 44.38 28.82 97.36 14.19 185.02Z" class="colorfcba06 svgShape"/><path fill="#fcba06" d="M291.2 753c12.46 15.8 48.15 31.22 93.95 29.7 12.57-.42-20.38 88.56-32.07 76.32-22.77-23.84-92.95-56-112.78-92.91 16.37-8.64 38.82-8.42 50.9-13.11Z" class="colorfcba06 svgShape"/><path fill="#e19100" d="M407.54 797.22A363.37 363.37 0 0 1 466 799.8c18.88 24.37-26.41 38.57-58.46-2.58Z" class="colore19100 svgShape"/><path fill="#f7d3c9" d="M423.25 800.63c2.22-16.66-3.51-30.74-9.05-39.82 0 0-15.53-21.84-15.13-44.1.5-28.42 45.47-35.52 58.37-29 16.61 9.77 19.19 24.57 22.81 44.18 0 0 8 18.26 8.13 19.48.23 1.79-5.36 1.64-5.61 2.52s1.64 11.94-1.68 16.69-14.33 3.66-17.61 5.82c-5.1 3.35-10.94 8.82-2.42 21.74 11.43 23.71-14.06 21.65-37.81 2.49Z" class="colorf7d3c9 svgShape"/><path fill="#5652cc" d="M323.87 848.81A30.39 30.39 0 0 1 338 801.68c.22-.08.95-.36 1.09-.4 16.43-5.1 46-27.11 48.26-58.36 2.55-36.06 10.85-55.41 33.3-61.79 22.61-6.42 41.05.78 45.61 12.87 6 34-4.45 43.45-18.1 45.88-12.26 2.18-17.22 12-13.4 21.33 3.35 8.23-.08 24.34-3.69 34 11.48 9.42 22.59 38.46 7.7 56.54-10.08 12.24-26 16.45-40.36 10.81a42 42 0 1 1-82.41 15 41.78 41.78 0 0 1 7.87-28.75Z" class="color5652cc svgShape"/><path fill="#f9dcd4" d="M394.2 727c6.44 0 14.19-.26 15.12-7.93a38.7 38.7 0 0 0-.52-10.62c-1-5 3.68-11.14 5.86-15.77 2.73-4.16 2.82-6.83-.32-8.27-7.87-3.62-20.54 3.1-24 14.83-2.34 7.94-1.21 8.22-4.66 11.66s8.52 16.1 8.52 16.1Z" class="colorf9dcd4 svgShape"/><path fill="#fcba06" d="M382.15 707.54c17.42.24 17.68 19.35 11.82 21.84s-98.67 34.33-98.67 39.7-2 19.77-2 19.77-51.49-8.77-53.52-24.74c-3.96-30.89 63.64-49.84 142.37-56.57Z" class="colorfcba06 svgShape"/><path fill="#ffd03e" d="M409.14 662.67h-.32a2.83 2.83 0 0 1-2.5-3.14c.2-1.82.56-3.53.91-5.19 1.49-7.05 2.78-13.15-10.71-24.37-17.46-14.53-15.55-29.59-13.86-42.87.17-1.35.35-2.7.5-4.05.78-6.94-3.6-11.89-7.41-14.83a37.33 37.33 0 0 0-17.91-7.07 2.84 2.84 0 1 1 .63-5.65 43.35 43.35 0 0 1 20.75 8.23c7 5.4 10.42 12.49 9.58 20-.16 1.37-.33 2.74-.51 4.13-1.65 13-3.2 25.24 11.86 37.78 16.13 13.42 14.27 22.18 12.64 29.92a46.23 46.23 0 0 0-.83 4.64 2.83 2.83 0 0 1-2.82 2.47Z" class="colorffd03e svgShape"/><path fill="#e9edf7" d="M467.53 658.75h-.32a2.85 2.85 0 0 1-2.51-3.14c4.85-43.16 13.38-67.49 27.67-78.9a2.84 2.84 0 1 1 3.54 4.44c-12.84 10.25-21 34.11-25.57 75.09a2.83 2.83 0 0 1-2.81 2.51ZM358.74 685.92a2.85 2.85 0 0 1-2.22-1.07c-10.51-13.17-32.09-21-48.81-22.83a2.84 2.84 0 0 1 .63-5.64c16.58 1.86 40.3 9.5 52.62 24.93a2.85 2.85 0 0 1-.45 4 2.81 2.81 0 0 1-1.77.61Z" class="colore9edf7 svgShape"/><path fill="#807dfb" d="m356.18 636-23.94-21.32-9.34-9.57 6.57-6.41 9.34 9.58 20.79 24.42Zm9.07 12.07-5.89-6 6.1-5.94 5.89 6ZM433.75 601.39a11.79 11.79 0 0 1-4 .15 6.65 6.65 0 0 1-5.54-4.44 8 8 0 0 1-.22-4.45 11.24 11.24 0 0 1 2.18-4.66 15 15 0 0 1 5.49-4.3 13 13 0 0 1 6.5-1.4 9 9 0 0 1 5 1.7 6.88 6.88 0 0 1 2.2 2.91 8.2 8.2 0 0 1 .49 4.08l2.58-2.16 3 2.32-11.1 9.4c-1.54 1.31-2.38 2.05-2.51 2.22a1.32 1.32 0 0 0-.26 1 1.47 1.47 0 0 0 .58 1 5.57 5.57 0 0 0 3.12.77 11.83 11.83 0 0 0 5.81-1.26 13.33 13.33 0 0 0 4.71-3.8 12.71 12.71 0 0 0 1.32-13.54 17.12 17.12 0 0 0-5.17-6.31 18 18 0 0 0-8.59-3.69 15.92 15.92 0 0 0-9.1 1.39 19.73 19.73 0 0 0-7.46 6 16.9 16.9 0 0 0-3.67 8.46 13.42 13.42 0 0 0 1.79 8.38 24.16 24.16 0 0 0 6.4 7.19 20.75 20.75 0 0 0 8.51 4.2 14.48 14.48 0 0 0 7.22-.16l3 2.34a15 15 0 0 1-5.71 1.33 19.87 19.87 0 0 1-7.18-.92 24.85 24.85 0 0 1-7.74-4.26 29.47 29.47 0 0 1-6.14-6.26 18.23 18.23 0 0 1-3.15-7 16 16 0 0 1 .07-7 21.17 21.17 0 0 1 3.86-7.94 23.66 23.66 0 0 1 7.7-6.51 19.81 19.81 0 0 1 11.26-2.5 20.9 20.9 0 0 1 11 4.63 20.18 20.18 0 0 1 6.17 7.46 15.72 15.72 0 0 1 1.32 9.11 16 16 0 0 1-3.24 7.57 15.77 15.77 0 0 1-10.08 6q-5.67 1-9.3-1.75a5.4 5.4 0 0 1-1.6-1.8 2.85 2.85 0 0 1-.28-1.82 5.57 5.57 0 0 1 .76-1.68Zm-4.62-10.81a6.73 6.73 0 0 0-1.67 4.42 4.06 4.06 0 0 0 1.52 3.2 5.21 5.21 0 0 0 2.42 1 9 9 0 0 0 3.27-.14 10.87 10.87 0 0 0 3.72-1.62 12.74 12.74 0 0 0 3.24-2.95 6.45 6.45 0 0 0 1.6-4.41 4.5 4.5 0 0 0-1.8-3.39 5.1 5.1 0 0 0-2.44-1 7.91 7.91 0 0 0-3.19.34 12.6 12.6 0 0 0-3.69 1.84 13.6 13.6 0 0 0-2.98 2.71Z" class="color807dfb svgShape"/><path fill="#fcba06" d="m1067.48 1698.75-31.83 6.46a7.12 7.12 0 0 0-5.33 4.71l-10.33 30.8a7.14 7.14 0 0 0 1.42 7l21.51 24.34a7.15 7.15 0 0 0 6.75 2.26l31.83-6.46a7.12 7.12 0 0 0 5.33-4.71l10.32-30.8a7.11 7.11 0 0 0-1.41-7l-21.52-24.35a7.08 7.08 0 0 0-6.74-2.25Z" class="colorfcba06 svgShape"/><path fill="#ffd03e" d="m1566 94.43-28 42.1a7.11 7.11 0 0 0 5.48 11l50.44 3.16a7.11 7.11 0 0 0 6.81-10.26l-22.47-45.23a7.11 7.11 0 0 0-12.26-.77Z" class="colorffd03e svgShape"/><path fill="#e9edf7" d="m25.81 647.33-2.23 50.49A7.1 7.1 0 0 0 34 704.44l44.84-23.3a7.11 7.11 0 0 0 .55-12.3l-42.65-27.19a7.11 7.11 0 0 0-10.93 5.68Z" class="colore9edf7 svgShape"/></g></svg>